<?xml version="1.0" encoding="utf-8"?>
<!-- Generator: Adobe Illustrator 25.2.0, SVG Export Plug-In . SVG Version: 6.00 Build 0)  -->
<svg version="1.1" id="Camada_1" xmlns="http://www.w3.org/2000/svg" xmlns:xlink="http://www.w3.org/1999/xlink" x="0px" y="0px"
	 viewBox="0 0 99.6 99.6" style="enable-background:new 0 0 99.6 99.6;" xml:space="preserve">
<style type="text/css">
	.st0{fill:#FF3B30;}
</style>
<g id="Regular-M" transform="matrix(1 0 0 1 1391.3 1126)">
	<path class="st0" d="M-1341.5-1026.4c27.2,0,49.8-22.6,49.8-49.8c0-27.2-22.6-49.8-49.9-49.8c-27.2,0-49.8,22.6-49.8,49.8
		C-1391.3-1048.9-1368.7-1026.4-1341.5-1026.4z M-1341.5-1034.7c-23,0-41.5-18.5-41.5-41.5s18.4-41.5,41.4-41.5s41.5,18.5,41.6,41.5
		C-1299.9-1053.1-1318.4-1034.7-1341.5-1034.7z M-1358.2-1055.5c1.1,0,2.1-0.4,2.8-1.2l13.9-13.9l13.9,13.9c0.7,0.7,1.7,1.2,2.8,1.2
		c2.1,0,3.9-1.8,3.9-4c0-1.1-0.4-2.1-1.2-2.8l-13.9-13.9l13.9-14c0.8-0.8,1.2-1.7,1.2-2.7c0-2.2-1.8-3.9-3.9-3.9
		c-1,0-1.9,0.3-2.7,1.2l-14.1,14l-14-13.9c-0.7-0.8-1.6-1.1-2.7-1.1c-2.1,0-3.9,1.7-3.9,3.9c0,1.1,0.4,2,1.2,2.7l13.9,13.9
		l-13.9,13.9c-0.8,0.7-1.2,1.7-1.2,2.7C-1362.1-1057.3-1360.3-1055.5-1358.2-1055.5z"/>
</g>
</svg>
