<?xml version="1.0" encoding="utf-8"?>
<!-- Generator: Adobe Illustrator 25.2.0, SVG Export Plug-In . SVG Version: 6.00 Build 0)  -->
<svg version="1.1" id="Camada_1" xmlns="http://www.w3.org/2000/svg" xmlns:xlink="http://www.w3.org/1999/xlink" x="0px" y="0px"
	 viewBox="0 0 99.6 99.6" style="enable-background:new 0 0 99.6 99.6;" xml:space="preserve">
<style type="text/css">
	.st0{fill:#007AFF;}
</style>
<g id="Regular-M" transform="matrix(1 0 0 1 1391.3 1126)">
	<path class="st0" d="M-1341.5-1026.4c27.2,0,49.8-22.6,49.8-49.8c0-27.2-22.6-49.8-49.9-49.8c-27.2,0-49.8,22.6-49.8,49.8
		C-1391.3-1048.9-1368.7-1026.4-1341.5-1026.4z M-1341.5-1034.7c-23,0-41.5-18.5-41.5-41.5s18.4-41.5,41.4-41.5s41.5,18.5,41.6,41.5
		C-1299.9-1053.1-1318.4-1034.7-1341.5-1034.7z M-1341.9-1093.6c3.6,0,6.3-2.8,6.3-6.3c0-3.6-2.8-6.4-6.3-6.4s-6.3,2.8-6.3,6.4
		C-1348.3-1096.4-1345.5-1093.6-1341.9-1093.6z M-1350-1049.3h19.9c2,0,3.6-1.4,3.6-3.4c0-1.9-1.6-3.4-3.6-3.4h-6.1v-24.9
		c0-2.6-1.3-4.4-3.8-4.4h-9.2c-2,0-3.6,1.5-3.6,3.4c0,2,1.6,3.4,3.6,3.4h5.2v22.4h-6.1c-2,0-3.6,1.5-3.6,3.4
		C-1353.6-1050.8-1352-1049.3-1350-1049.3z"/>
</g>
</svg>
