<?xml version="1.0" encoding="utf-8"?>
<!-- Generator: Adobe Illustrator 25.2.0, SVG Export Plug-In . SVG Version: 6.00 Build 0)  -->
<svg version="1.1" id="Camada_1" xmlns="http://www.w3.org/2000/svg" xmlns:xlink="http://www.w3.org/1999/xlink" x="0px" y="0px"
	 viewBox="0 0 99.6 99.6" style="enable-background:new 0 0 99.6 99.6;" xml:space="preserve">
<style type="text/css">
	.st0{fill:#007AFF;}
</style>
<g id="Regular-M" transform="matrix(1 0 0 1 1391.3 1126)">
	<path class="st0" d="M-1341.5-1026.4c27.2,0,49.8-22.6,49.8-49.8c0-27.2-22.6-49.8-49.9-49.8c-27.2,0-49.8,22.6-49.8,49.8
		C-1391.3-1048.9-1368.7-1026.4-1341.5-1026.4z M-1341.5-1034.7c-23,0-41.5-18.5-41.5-41.5s18.4-41.5,41.4-41.5s41.5,18.5,41.6,41.5
		C-1299.9-1053.1-1318.4-1034.7-1341.5-1034.7z M-1342.5-1066.1c2.5,0,4-1.5,4-3.5v-0.6c0-2.7,1.6-4.4,5-6.7c4.7-3.1,8.1-6,8.1-11.8
		c0-8.2-7.2-12.5-15.5-12.5c-8.4,0-13.9,4-15.3,8.4c-0.2,0.8-0.4,1.6-0.4,2.4c0,2.1,1.7,3.4,3.3,3.4c2.8,0,3.2-1.5,4.8-3.3
		c1.6-2.7,4-4.3,7.2-4.3c4.4,0,7.4,2.5,7.4,6.3c0,3.3-2.1,4.9-6.3,7.9c-3.5,2.4-6.1,5-6.1,9.8v0.6
		C-1346.4-1067.4-1345-1066.1-1342.5-1066.1z M-1342.6-1051.5c2.8,0,5.3-2.2,5.3-5.1s-2.4-5.1-5.3-5.1s-5.3,2.2-5.3,5.1
		C-1347.9-1053.8-1345.5-1051.5-1342.6-1051.5z"/>
</g>
</svg>
