<?xml version="1.0" encoding="utf-8"?>
<!-- Generator: Adobe Illustrator 25.2.0, SVG Export Plug-In . SVG Version: 6.00 Build 0)  -->
<svg version="1.1" id="Camada_1" xmlns="http://www.w3.org/2000/svg" xmlns:xlink="http://www.w3.org/1999/xlink" x="0px" y="0px"
	 viewBox="0 0 102.1 92.5" style="enable-background:new 0 0 102.1 92.5;" xml:space="preserve">
<style type="text/css">
	.st0{fill:#FFCC00;}
</style>
<g id="Regular-M" transform="matrix(1 0 0 1 1388.83 1126)">
	<path class="st0" d="M-1375.4-1033.5h75.1c8.3,0,13.5-6,13.5-13.5c0-2.2-0.6-4.5-1.8-6.6l-37.6-65.6c-2.5-4.4-7-6.8-11.6-6.8
		s-9.1,2.4-11.6,6.8l-37.6,65.6c-1.2,2.1-1.8,4.3-1.8,6.6C-1388.8-1039.4-1383.7-1033.5-1375.4-1033.5z M-1375.3-1041.1
		c-3.4,0-5.6-2.8-5.6-5.8c0-0.9,0.1-1.9,0.6-2.9l37.6-65.6c1.1-1.9,3-2.7,4.9-2.7s3.8,0.8,4.8,2.7l37.5,65.6c0.5,1,0.8,2,0.8,2.9
		c0,3-2.3,5.8-5.7,5.8H-1375.3z M-1337.8-1066.4c2.3,0,3.7-1.4,3.7-3.9l0.7-25.7c0-2.5-1.9-4.3-4.5-4.3s-4.5,1.8-4.4,4.3l0.6,25.8
		C-1341.6-1067.8-1340.2-1066.4-1337.8-1066.4z M-1337.8-1050.5c2.8,0,5.3-2.2,5.3-5.1s-2.4-5.1-5.3-5.1s-5.3,2.2-5.3,5.1
		C-1343-1052.8-1340.6-1050.5-1337.8-1050.5z"/>
</g>
</svg>
