<?xml version="1.0" encoding="utf-8"?>
<!-- Generator: Adobe Illustrator 24.2.3, SVG Export Plug-In . SVG Version: 6.00 Build 0)  -->
<svg version="1.1" id="Camada_1" xmlns="http://www.w3.org/2000/svg" xmlns:xlink="http://www.w3.org/1999/xlink" x="0px" y="0px"
	 viewBox="0 0 99.6 99.6" style="enable-background:new 0 0 99.6 99.6;" xml:space="preserve">
<g id="Regular-M" transform="matrix(1 0 0 1 1391.3 1126)">
	<path d="M-1341.5-1026.4c27.2,0,49.8-22.6,49.8-49.8c0-27.2-22.6-49.8-49.9-49.8c-27.2,0-49.8,22.6-49.8,49.8
		C-1391.3-1048.9-1368.7-1026.4-1341.5-1026.4z M-1341.5-1059.5c-14.7,0-26,5.2-31,11.1c-6.5-7.3-10.5-17-10.5-27.7
		c0-23,18.4-41.5,41.4-41.5s41.5,18.5,41.6,41.5c0,10.7-4,20.5-10.5,27.8C-1315.5-1054.3-1326.8-1059.5-1341.5-1059.5z
		 M-1341.5-1067.8c9.4,0.1,16.7-7.9,16.7-18.4c0-9.9-7.4-18.1-16.7-18.1s-16.8,8.2-16.7,18.1
		C-1358.2-1075.8-1350.9-1067.9-1341.5-1067.8z"/>
</g>
</svg>
