<?xml version="1.0" encoding="utf-8"?>
<!-- Generator: Adobe Illustrator 24.2.3, SVG Export Plug-In . SVG Version: 6.00 Build 0)  -->
<svg version="1.1" id="Camada_1" xmlns="http://www.w3.org/2000/svg" xmlns:xlink="http://www.w3.org/1999/xlink" x="0px" y="0px"
	 viewBox="0 0 99.6 99.6" style="enable-background:new 0 0 99.6 99.6;" xml:space="preserve">
<g id="Regular-M" transform="matrix(1 0 0 1 1391.3 1126)">
	<path d="M-1341.5-1026.4c27.2,0,49.8-22.6,49.8-49.8c0-27.2-22.6-49.8-49.9-49.8c-27.2,0-49.8,22.6-49.8,49.8
		C-1391.3-1048.9-1368.7-1026.4-1341.5-1026.4z M-1341.5-1034.7c-23,0-41.5-18.5-41.5-41.5c0-23,18.4-41.5,41.4-41.5
		s41.5,18.5,41.6,41.5C-1299.9-1053.1-1318.4-1034.7-1341.5-1034.7z M-1341.6-1053c2.6,0,4.2-1.8,4.2-4.6v-14.5h15.3
		c2.7,0,4.6-1.4,4.6-4c0-2.6-1.8-4.2-4.6-4.2h-15.3v-15.3c0-2.9-1.6-4.6-4.2-4.6s-4.1,1.9-4.1,4.6v15.3h-15.2
		c-2.8,0-4.7,1.5-4.7,4.2c0,2.6,2,4,4.7,4h15.2v14.5C-1345.6-1054.9-1344.2-1053-1341.6-1053z"/>
</g>
</svg>
