<?xml version="1.0" encoding="utf-8"?>
<!-- Generator: Adobe Illustrator 25.4.1, SVG Export Plug-In . SVG Version: 6.00 Build 0)  -->
<svg version="1.1" id="Camada_1" xmlns="http://www.w3.org/2000/svg" xmlns:xlink="http://www.w3.org/1999/xlink" x="0px" y="0px"
	 viewBox="0 0 102.1 124.1" style="enable-background:new 0 0 102.1 124.1;" xml:space="preserve">
<g id="Regular-M" transform="matrix(1 0 0 1 1386.37 1126)">
	<path d="M-1371.2-1001.9h47.4c10.1,0,14.8-5.1,14.8-15.3v-9h9.5c10.1,0,15.1-5.1,15.1-15.3v-40.9c0-6-1.2-9.8-4.8-13.6l-24.7-25.1
		c-3.5-3.6-7.6-4.8-12.8-4.8h-20c-10.1,0-15.1,5.1-15.1,15.3v9h-9.5c-10.1,0-15.1,5.1-15.1,15.3v69
		C-1386.4-1007-1381.3-1001.9-1371.2-1001.9z M-1309-1056.6c0-6.3-0.7-9-4.6-13l-27-27.4c-3.7-3.8-6.7-4.6-12.3-4.6h-1.1v-8.9
		c0-4.8,2.6-7.6,7.7-7.6h20.6v25.5c0,5.6,2.7,8.3,8.3,8.3h25v42.5c0,4.8-2.6,7.6-7.7,7.6h-9.1v-22.4H-1309z M-1316.1-1091.3
		c-1.7,0-2.4-0.7-2.4-2.4v-22.8l24.8,25.2L-1316.1-1091.3L-1316.1-1091.3z M-1370.9-1009.8c-5,0-7.6-2.7-7.6-7.6v-68.8
		c0-4.8,2.6-7.6,7.7-7.6h17v28.3c0,6.2,3.1,9.2,9.2,9.2h27.8v38.9c0,4.9-2.6,7.6-7.7,7.6L-1370.9-1009.8L-1370.9-1009.8z
		 M-1343.7-1063.6c-2,0-2.7-0.8-2.7-2.7v-25.9l28.1,28.6H-1343.7z"/>
</g>
</svg>
