<?xml version="1.0" encoding="utf-8"?>
<!-- Generator: Adobe Illustrator 26.0.1, SVG Export Plug-In . SVG Version: 6.00 Build 0)  -->
<svg version="1.1" id="Layer_1" xmlns="http://www.w3.org/2000/svg" xmlns:xlink="http://www.w3.org/1999/xlink" x="0px" y="0px"
	 viewBox="0 0 1012.7 1024" style="enable-background:new 0 0 1012.7 1024;" xml:space="preserve">
<path d="M893.6,904.4c132.5-132.5,155.6-293.8,63.4-483.9l-115.2-242c-5.8-17.3-17.3-34.6-28.8-46.1c-40.3-40.3-103.7-40.3-144,0
	c-23,23-34.6,63.4-17.3,103.7l28.8,69.1v5.8h-5.8L398.2,34.6c-46.1-46.1-103.7-46.1-149.8,0c-11.5,11.5-23,28.8-23,46.1
	c-46.1-28.8-92.2-23-126.7,11.5s-40.3,86.4-11.5,126.7c-17.3,0-34.6,11.5-46.1,23c-40.3,40.3-40.3,97.9,0,138.3l34.6,34.6
	c-17.3,0-34.6,5.8-46.1,23c-40.3,40.3-40.3,97.9,5.8,144l311.1,311.1C519.2,1065.7,732.4,1065.7,893.6,904.4z M830.3,846.8
	c-126.7,126.7-288,126.7-432.1-17.3L98.7,530c-11.5-11.5-11.5-34.6,0-46.1s34.6-11.5,46.1,0l184.4,184.3c17.3,17.3,40.3,11.5,51.8,0
	c17.3-17.3,17.3-40.3,0-51.8L104.4,339.9c-11.5-11.5-11.5-34.6,0-46.1s28.8-11.5,46.1,0L409.7,553c17.3,17.3,40.3,11.5,51.8,0
	c17.3-17.3,17.3-40.3,0-51.8L156.3,195.9c-11.5-11.5-11.5-34.6,0-46.1s34.6-11.5,46.1,0L502,449.4c17.3,17.3,40.3,11.5,51.8,0
	c11.5-17.3,17.3-40.3,0-51.8L300.3,144c-11.5-11.5-11.5-34.6,0-46.1s28.8-11.5,46.1,0l357.2,357.2c23,23,46.1,17.3,63.4,0
	c11.5-17.3,23-34.6,11.5-63.4l-63.4-167.1c-5.8-23,0-34.6,17.3-46.1c17.3-5.8,34.6,0,40.3,23L887.9,455
	C962.8,622.2,934,743.1,830.3,846.8z"/>
</svg>
