<?xml version="1.0" encoding="utf-8"?>
<!-- Generator: Adobe Illustrator 25.2.0, SVG Export Plug-In . SVG Version: 6.00 Build 0)  -->
<svg version="1.1" id="Camada_1" xmlns="http://www.w3.org/2000/svg" xmlns:xlink="http://www.w3.org/1999/xlink" x="0px" y="0px"
	 viewBox="0 0 99.6 99.6" style="enable-background:new 0 0 99.6 99.6;" xml:space="preserve">
<g id="Regular-M" transform="matrix(1 0 0 1 1391.3 1126)">
	<path d="M-1341.5-1026.4c27.2,0,49.8-22.6,49.8-49.8c0-27.2-22.6-49.8-49.9-49.8c-27.2,0-49.8,22.6-49.8,49.8
		C-1391.3-1048.9-1368.7-1026.4-1341.5-1026.4z M-1341.5-1034.7c-23,0-41.5-18.5-41.5-41.5s18.4-41.5,41.4-41.5s41.5,18.5,41.6,41.5
		C-1299.9-1053.1-1318.4-1034.7-1341.5-1034.7z M-1319.8-1073.9c0-12-9.9-21.4-20.8-21.4c-0.4,0-1,0-1.3,0.1l3.5-3.5
		c0.5-0.6,0.8-1.4,0.8-2.2c0-1.7-1.3-3.1-3.1-3.1c-0.9,0-1.7,0.4-2.2,1l-9.4,9.6c-1.1,1.2-1.2,3.4,0,4.5l9.5,9.5
		c0.5,0.5,1.4,0.9,2.1,0.9c1.7,0,3.1-1.4,3.1-3.1c0-0.9-0.3-1.7-0.9-2.2l-4.7-4.7c0.5-0.1,1.1-0.1,1.8-0.1c8.4,0,15,6.6,15,15
		s-6.6,15.1-15,15.1c-8.3,0-15-6.7-15-15.1c0-1.8-1.6-3.3-3.4-3.3s-3.4,1.5-3.4,3.3c0,12.1,9.7,21.9,21.8,21.9
		S-1319.8-1061.7-1319.8-1073.9z"/>
</g>
</svg>
