<?xml version="1.0" encoding="utf-8"?>
<!-- Generator: Adobe Illustrator 24.2.3, SVG Export Plug-In . SVG Version: 6.00 Build 0)  -->
<svg version="1.1" id="Camada_1" xmlns="http://www.w3.org/2000/svg" xmlns:xlink="http://www.w3.org/1999/xlink" x="0px" y="0px"
	 viewBox="0 0 103.6 103.8" style="enable-background:new 0 0 103.6 103.8;" xml:space="preserve">
<g id="Regular-M" transform="matrix(1 0 0 1 1386.83 1126)">
	<path d="M-1335.7-1054l6.5-6.6c-6.4-0.5-10.6-2.4-13.8-5.6c-8.5-8.5-8.5-20.7,0-29.1l15.9-15.9c8.5-8.5,20.6-8.5,29.1,0
		c8.5,8.5,8.4,20.6,0,29.1l-9.6,9.6c1.4,3.1,1.7,6.7,1.2,9.9l14.4-14.3c11.7-11.7,11.8-28.3,0-40.1c-11.9-11.9-28.5-11.8-40.2,0
		l-16.7,16.7c-11.7,11.7-11.8,28.3,0,40.1C-1345.8-1057.3-1341.9-1055.1-1335.7-1054z M-1334.4-1094.2l-6.5,6.6
		c6.4,0.5,10.6,2.4,13.8,5.6c8.5,8.5,8.5,20.7,0,29.1l-16,15.9c-8.5,8.5-20.5,8.5-29.1,0c-8.5-8.6-8.5-20.6,0-29.1l9.6-9.6
		c-1.4-3.1-1.7-6.7-1.2-9.9l-14.4,14.3c-11.7,11.7-11.8,28.3,0,40.1c11.9,11.9,28.5,11.8,40.1,0.1l16.7-16.7
		c11.7-11.7,11.8-28.3,0-40.1C-1324.3-1091-1328.2-1093.2-1334.4-1094.2z"/>
</g>
</svg>
