<?xml version="1.0" encoding="utf-8"?>
<!-- Generator: Adobe Illustrator 26.0.1, SVG Export Plug-In . SVG Version: 6.00 Build 0)  -->
<svg version="1.1" id="Layer_1" xmlns="http://www.w3.org/2000/svg" xmlns:xlink="http://www.w3.org/1999/xlink" x="0px" y="0px"
	 viewBox="0 0 721.1 1024" style="enable-background:new 0 0 721.1 1024;" xml:space="preserve">
<path d="M113.8,1024h487.3c84.7,0,120.1-42.4,120.1-127.1V536.7c0-77.7-28.3-120.1-91.8-120.1v-120C629.3,105.9,502.2,0,360.9,0
	S92.6,91.8,92.6,296.6v120.1c-63.6,7-91.8,49.4-91.8,120v360.2C-6.3,988.7,36.1,1024,113.8,1024z M184.4,275.4
	c0-120.1,77.7-190.7,169.5-190.7s169.5,63.6,169.5,190.7v127.1H191.5L184.4,275.4L184.4,275.4z M127.9,925.1
	c-21.2,0-35.3-14.1-35.3-35.3V529.7c0-28.3,14.1-35.3,35.3-35.3h452c21.2,0,35.3,14.1,35.3,35.3v360.2c0,28.3-14.1,35.3-35.3,35.3
	h-452V925.1z"/>
</svg>
