<?xml version="1.0" encoding="utf-8"?>
<!-- Generator: Adobe Illustrator 24.2.3, SVG Export Plug-In . SVG Version: 6.00 Build 0)  -->
<svg version="1.1" id="Camada_1" xmlns="http://www.w3.org/2000/svg" xmlns:xlink="http://www.w3.org/1999/xlink" x="0px" y="0px"
	 viewBox="0 0 108.1 96.9" style="enable-background:new 0 0 108.1 96.9;" xml:space="preserve">
<g id="Regular-M" transform="matrix(1 0 0 1 1385.86 1126)">
	<path d="M-1290.7-1032c1.5,1.5,3.9,1.5,5.3,0c1.5-1.5,1.5-3.9,0-5.3l-87.5-87.6c-1.5-1.5-3.9-1.5-5.4,0c-1.4,1.4-1.4,3.9,0,5.3
		L-1290.7-1032z M-1287.9-1074.4c0.8,0.8,2.1,0.8,3.1-0.1l6.4-6.5c0.8-0.8,0.8-1.9,0.2-2.7c-11.3-13.4-31.8-23.6-53.6-23.6
		c-4.7,0-9.4,0.5-14,1.4l12.8,12.8C-1315.6-1093.3-1300-1086.7-1287.9-1074.4z M-1378.8-1074.5c0.9,0.9,2.2,0.9,3.1,0
		c5.9-6.3,12.7-10.9,20.3-14.1l-10.4-10.4c-7.9,4.1-14.7,9.4-19.7,15.3c-0.7,0.8-0.7,1.9,0.1,2.7L-1378.8-1074.5z M-1359.2-1054.8
		c1,1,2.2,0.9,3.2-0.1c5.6-6.2,14.6-10.5,23.7-10.6l-12.4-12.4c-9.1,2.4-16.9,7.4-22,13.3c-0.7,0.8-0.6,1.9,0.2,2.6L-1359.2-1054.8z
		 M-1299.6-1059.6l2.5-2.4c0.8-0.8,0.8-1.8,0.1-2.6c-4.7-5.6-12-10.3-20.5-12.8L-1299.6-1059.6z M-1331.8-1029.1
		c1,0,1.9-0.5,3.7-2.3l11.4-11c0.8-0.7,0.9-1.8,0.3-2.6c-3.1-4-8.8-7.4-15.4-7.4c-6.8,0-12.6,3.6-15.6,7.7c-0.5,0.7-0.3,1.6,0.4,2.3
		l11.4,11C-1333.7-1029.7-1332.8-1029.1-1331.8-1029.1z"/>
</g>
</svg>
